#Comment line ignore any data following # character 
#Hierarchical Translation and Rotation (.htr) file 
[Header]	
#Header keywords are followed by a single value 
FileType HTR		#Single word string
DataType HTRS		#Translation followed by rotation and scale data
FileVersion 1		#integer
NumSegments 84		#integer
NumFrames 2		#integer
DataFrameRate 30		#integer, data frame rate in this file
EulerRotationOrder ZYX
CalibrationUnits mm
RotationUnits Degrees
GlobalAxisofGravity Y
BoneLengthAxis Y
ScaleFactor 1.00
[SegmentNames&Hierarchy]
#CHILD	PARENT
MASTER GLOBAL
root MASTER
chest root
L_mid_tent01 root
R_mid_tent01 root
spine01 root
Bip01_Neck chest
L_humerus chest
R_humerus chest
weapon_bone chest
Bip01_Head Bip01_Neck
eye_left_bone Bip01_Head
eye_right_bone Bip01_Head
L_forearm L_humerus
L_front_hand L_forearm
L_weapon_bone L_forearm
L_front_hand01_01 L_front_hand
L_front_hand02_01 L_front_hand
L_front_hand03_01 L_front_hand
L_front_hand01_02 L_front_hand01_01
L_front_hand02_02 L_front_hand02_01
L_front_hand03_02 L_front_hand03_01
R_forearm R_humerus
R_front_hand R_forearm
R_weapon_bone R_forearm
R_front_hand01_01 R_front_hand
R_front_hand02_01 R_front_hand
R_front_hand03_01 R_front_hand
R_front_hand01_02 R_front_hand01_01
R_front_hand02_02 R_front_hand02_01
R_front_hand03_02 R_front_hand03_01
null_rope01_connect L_mid_tent01
Rope1_Seg01 null_rope01_connect
Rope1_Seg02 Rope1_Seg01
Rope1_Seg03 Rope1_Seg02
Rope1_Seg04 Rope1_Seg03
Rope1_Seg05 Rope1_Seg04
Rope1_Seg06 Rope1_Seg05
Rope1_Seg07 Rope1_Seg06
Rope1_Seg09 Rope1_Seg07
L_mid_hand01 Rope1_Seg09
L_mid_hand02 Rope1_Seg09
L_mid_hand03 Rope1_Seg09
null_rope02_connect R_mid_tent01
Rope2_Seg01 null_rope02_connect
Rope2_Seg02 Rope2_Seg01
Rope2_Seg03 Rope2_Seg02
Rope2_Seg04 Rope2_Seg03
Rope2_Seg05 Rope2_Seg04
Rope2_Seg06 Rope2_Seg05
Rope2_Seg07 Rope2_Seg06
Rope2_Seg09 Rope2_Seg07
R_mid_hand01 Rope2_Seg09
R_mid_hand02 Rope2_Seg09
R_mid_hand03 Rope2_Seg09
spine02 spine01
spine03 spine02
pelvis spine03
null_rope03_connect pelvis
null_rope04_connect pelvis
Rope3_Seg01 null_rope03_connect
Rope3_Seg02 Rope3_Seg01
Rope3_Seg03 Rope3_Seg02
Rope3_Seg04 Rope3_Seg03
Rope3_Seg05 Rope3_Seg04
Rope3_Seg06 Rope3_Seg05
Rope3_Seg07 Rope3_Seg06
Rope3_Seg08 Rope3_Seg07
Rope3_Seg09 Rope3_Seg08
R_rear_hand01 Rope3_Seg09
R_rear_hand02 Rope3_Seg09
R_rear_hand03 Rope3_Seg09
Rope4_Seg01 null_rope04_connect
Rope4_Seg02 Rope4_Seg01
Rope4_Seg03 Rope4_Seg02
Rope4_Seg04 Rope4_Seg03
Rope4_Seg05 Rope4_Seg04
Rope4_Seg06 Rope4_Seg05
Rope4_Seg07 Rope4_Seg06
Rope4_Seg08 Rope4_Seg07
Rope4_Seg09 Rope4_Seg08
L_rear_hand01 Rope4_Seg09
L_rear_hand02 Rope4_Seg09
L_rear_hand03 Rope4_Seg09
[BasePosition]
#SegmentName Tx, Ty, Tz, Rx, Ry, Rz, BoneLength
MASTER 0.000000 0.000000 0.000000 -90.000000 0.000000 0.000000 10.000000 
root 0.000000 0.000000 0.000000 0.000000 0.000000 0.000000 10.000000 
chest 0.000000 0.000000 0.000000 0.000000 0.000000 0.000000 10.000000 
L_mid_tent01 0.000000 0.000000 0.000000 0.000000 0.000000 0.000000 10.000000 
R_mid_tent01 0.000000 0.000000 0.000000 0.000000 0.000000 0.000000 10.000000 
spine01 0.000000 0.000000 0.000000 0.000000 0.000000 0.000000 10.000000 
Bip01_Neck 0.000000 0.000000 0.000000 0.000000 0.000000 0.000000 10.000000 
L_humerus 0.000000 0.000000 0.000000 0.000000 0.000000 0.000000 10.000000 
R_humerus 0.000000 0.000000 0.000000 0.000000 0.000000 0.000000 10.000000 
weapon_bone 0.000000 0.000000 0.000000 0.000000 0.000000 0.000000 10.000000 
Bip01_Head 0.000000 0.000000 0.000000 0.000000 0.000000 0.000000 10.000000 
eye_left_bone 0.000000 0.000000 0.000000 0.000000 0.000000 0.000000 10.000000 
eye_right_bone 0.000000 0.000000 0.000000 0.000000 0.000000 0.000000 10.000000 
L_forearm 0.000000 0.000000 0.000000 0.000000 0.000000 0.000000 10.000000 
L_front_hand 0.000000 0.000000 0.000000 0.000000 0.000000 0.000000 10.000000 
L_weapon_bone 0.000000 0.000000 0.000000 0.000000 0.000000 0.000000 10.000000 
L_front_hand01_01 0.000000 0.000000 0.000000 0.000000 0.000000 0.000000 10.000000 
L_front_hand02_01 0.000000 0.000000 0.000000 0.000000 0.000000 0.000000 10.000000 
L_front_hand03_01 0.000000 0.000000 0.000000 0.000000 0.000000 0.000000 10.000000 
L_front_hand01_02 0.000000 0.000000 0.000000 0.000000 0.000000 0.000000 10.000000 
L_front_hand02_02 0.000000 0.000000 0.000000 0.000000 0.000000 0.000000 10.000000 
L_front_hand03_02 0.000000 0.000000 0.000000 0.000000 0.000000 0.000000 10.000000 
R_forearm 0.000000 0.000000 0.000000 0.000000 0.000000 0.000000 10.000000 
R_front_hand 0.000000 0.000000 0.000000 0.000000 0.000000 0.000000 10.000000 
R_weapon_bone 0.000000 0.000000 0.000000 0.000000 0.000000 0.000000 10.000000 
R_front_hand01_01 0.000000 0.000000 0.000000 0.000000 0.000000 0.000000 10.000000 
R_front_hand02_01 0.000000 0.000000 0.000000 0.000000 0.000000 0.000000 10.000000 
R_front_hand03_01 0.000000 0.000000 0.000000 0.000000 0.000000 0.000000 10.000000 
R_front_hand01_02 0.000000 0.000000 0.000000 0.000000 0.000000 0.000000 10.000000 
R_front_hand02_02 0.000000 0.000000 0.000000 0.000000 0.000000 0.000000 10.000000 
R_front_hand03_02 0.000000 0.000000 0.000000 0.000000 0.000000 0.000000 10.000000 
null_rope01_connect 0.000000 0.000000 0.000000 0.000000 0.000000 0.000000 10.000000 
Rope1_Seg01 0.000000 0.000000 0.000000 0.000000 0.000000 0.000000 10.000000 
Rope1_Seg02 0.000000 0.000000 0.000000 0.000000 0.000000 0.000000 10.000000 
Rope1_Seg03 0.000000 0.000000 0.000000 0.000000 0.000000 0.000000 10.000000 
Rope1_Seg04 0.000000 0.000000 0.000000 0.000000 0.000000 0.000000 10.000000 
Rope1_Seg05 0.000000 0.000000 0.000000 0.000000 0.000000 0.000000 10.000000 
Rope1_Seg06 0.000000 0.000000 0.000000 0.000000 0.000000 0.000000 10.000000 
Rope1_Seg07 0.000000 0.000000 0.000000 0.000000 0.000000 0.000000 10.000000 
Rope1_Seg09 0.000000 0.000000 0.000000 0.000000 0.000000 0.000000 10.000000 
L_mid_hand01 0.000000 0.000000 0.000000 0.000000 0.000000 0.000000 10.000000 
L_mid_hand02 0.000000 0.000000 0.000000 0.000000 0.000000 0.000000 10.000000 
L_mid_hand03 0.000000 0.000000 0.000000 0.000000 0.000000 0.000000 10.000000 
null_rope02_connect 0.000000 0.000000 0.000000 0.000000 0.000000 0.000000 10.000000 
Rope2_Seg01 0.000000 0.000000 0.000000 0.000000 0.000000 0.000000 10.000000 
Rope2_Seg02 0.000000 0.000000 0.000000 0.000000 0.000000 0.000000 10.000000 
Rope2_Seg03 0.000000 0.000000 0.000000 0.000000 0.000000 0.000000 10.000000 
Rope2_Seg04 0.000000 0.000000 0.000000 0.000000 0.000000 0.000000 10.000000 
Rope2_Seg05 0.000000 0.000000 0.000000 0.000000 0.000000 0.000000 10.000000 
Rope2_Seg06 0.000000 0.000000 0.000000 0.000000 0.000000 0.000000 10.000000 
Rope2_Seg07 0.000000 0.000000 0.000000 0.000000 0.000000 0.000000 10.000000 
Rope2_Seg09 0.000000 0.000000 0.000000 0.000000 0.000000 0.000000 10.000000 
R_mid_hand01 0.000000 0.000000 0.000000 0.000000 0.000000 0.000000 10.000000 
R_mid_hand02 0.000000 0.000000 0.000000 0.000000 0.000000 0.000000 10.000000 
R_mid_hand03 0.000000 0.000000 0.000000 0.000000 0.000000 0.000000 10.000000 
spine02 0.000000 0.000000 0.000000 0.000000 0.000000 0.000000 10.000000 
spine03 0.000000 0.000000 0.000000 0.000000 0.000000 0.000000 10.000000 
pelvis 0.000000 0.000000 0.000000 0.000000 0.000000 0.000000 10.000000 
null_rope03_connect 0.000000 0.000000 0.000000 0.000000 0.000000 0.000000 10.000000 
null_rope04_connect 0.000000 0.000000 0.000000 0.000000 0.000000 0.000000 10.000000 
Rope3_Seg01 0.000000 0.000000 0.000000 0.000000 0.000000 0.000000 10.000000 
Rope3_Seg02 0.000000 0.000000 0.000000 0.000000 0.000000 0.000000 10.000000 
Rope3_Seg03 0.000000 0.000000 0.000000 0.000000 0.000000 0.000000 10.000000 
Rope3_Seg04 0.000000 0.000000 0.000000 0.000000 0.000000 0.000000 10.000000 
Rope3_Seg05 0.000000 0.000000 0.000000 0.000000 0.000000 0.000000 10.000000 
Rope3_Seg06 0.000000 0.000000 0.000000 0.000000 0.000000 0.000000 10.000000 
Rope3_Seg07 0.000000 0.000000 0.000000 0.000000 0.000000 0.000000 10.000000 
Rope3_Seg08 0.000000 0.000000 0.000000 0.000000 0.000000 0.000000 10.000000 
Rope3_Seg09 0.000000 0.000000 0.000000 0.000000 0.000000 0.000000 10.000000 
R_rear_hand01 0.000000 0.000000 0.000000 0.000000 0.000000 0.000000 10.000000 
R_rear_hand02 0.000000 0.000000 0.000000 0.000000 0.000000 0.000000 10.000000 
R_rear_hand03 0.000000 0.000000 0.000000 0.000000 0.000000 0.000000 10.000000 
Rope4_Seg01 0.000000 0.000000 0.000000 0.000000 0.000000 0.000000 10.000000 
Rope4_Seg02 0.000000 0.000000 0.000000 0.000000 0.000000 0.000000 10.000000 
Rope4_Seg03 0.000000 0.000000 0.000000 0.000000 0.000000 0.000000 10.000000 
Rope4_Seg04 0.000000 0.000000 0.000000 0.000000 0.000000 0.000000 10.000000 
Rope4_Seg05 0.000000 0.000000 0.000000 0.000000 0.000000 0.000000 10.000000 
Rope4_Seg06 0.000000 0.000000 0.000000 0.000000 0.000000 0.000000 10.000000 
Rope4_Seg07 0.000000 0.000000 0.000000 0.000000 0.000000 0.000000 10.000000 
Rope4_Seg08 0.000000 0.000000 0.000000 0.000000 0.000000 0.000000 10.000000 
Rope4_Seg09 0.000000 0.000000 0.000000 0.000000 0.000000 0.000000 10.000000 
L_rear_hand01 0.000000 0.000000 0.000000 0.000000 0.000000 0.000000 10.000000 
L_rear_hand02 0.000000 0.000000 0.000000 0.000000 0.000000 0.000000 10.000000 
L_rear_hand03 0.000000 0.000000 0.000000 0.000000 0.000000 0.000000 10.000000 
#Beginning of Data. Separated by tabs
#Fr	Tx	Ty	Tz	Rx	Ry	Rz	SF
[MASTER]
1 0.000010 0.000000 0.000000 0.001660 0.001660 0.001660 0.000010
2 -41.852665 -0.000006 0.000000 0.001660 0.001660 0.001660 41.852665
[root]
1 -16.502295 -62.822109 1500.000000 -89.199776 -27.679495 -90.150383 1501.405640
2 -16.502295 -62.822109 1481.106567 -85.419586 -27.675991 -90.149170 1482.530151
[chest]
1 -84.512650 -34.090519 0.000000 -5.203234 1.503577 -178.039886 91.129311
2 -84.512650 -34.090519 0.000000 0.649258 1.192393 -178.609985 91.129311
[L_mid_tent01]
1 27.299500 22.177427 -249.917999 3.862628 36.229202 81.347610 252.380875
2 27.338848 22.154922 -250.170914 -7.994416 32.522442 63.534454 252.633621
[R_mid_tent01]
1 23.228794 24.509907 226.238495 160.432037 -47.061241 87.899765 228.744751
2 23.228794 24.509907 226.238495 170.804779 -49.869125 73.700493 228.744751
[spine01]
1 -0.361383 -0.195265 0.000000 0.840989 0.446373 15.483044 0.410763
2 -0.361383 -0.195265 0.000000 0.338572 0.550036 11.143856 0.410763
[Bip01_Neck]
1 165.484543 71.581718 0.000119 175.896118 1.177290 24.871183 180.302734
2 165.484543 71.581718 0.000119 175.896118 1.177290 24.871181 180.302734
[L_humerus]
1 -13.983130 -135.272980 -120.471481 170.940796 81.564224 -99.189163 181.680161
2 -13.983130 -135.272980 -120.471481 170.940826 81.564293 -99.189247 181.680161
[R_humerus]
1 -13.983309 -135.273102 125.287651 -159.666046 -68.957870 -101.166077 184.909012
2 -13.983309 -135.273102 125.287651 -159.666046 -68.957893 -101.166092 184.909012
[weapon_bone]
1 235.964890 -300.705902 0.000000 0.000000 -89.951546 -128.212341 382.234833
2 235.964890 -300.705902 0.000000 0.000000 -89.951546 -128.212341 382.234833
[Bip01_Head]
1 261.355835 108.959351 -2.864246 2.248029 5.843377 -62.458344 283.173492
2 261.355835 108.959358 -2.864239 2.248028 5.843376 -62.458344 283.173492
[eye_left_bone]
1 -24.626970 125.451866 -64.772606 0.000000 -90.000000 -99.840431 143.318359
2 -24.626970 125.451866 -64.772606 0.000000 -90.000000 -99.840431 143.318359
[eye_right_bone]
1 -24.626970 125.451866 64.327362 0.000000 -89.960434 80.159386 143.117676
2 -24.626970 125.451866 64.327362 0.000000 -89.972023 80.159386 143.117676
[L_forearm]
1 322.776093 0.000000 -0.000119 0.000471 0.002300 -66.859398 322.776093
2 322.776093 0.000000 -0.000119 0.000471 0.002300 -66.859406 322.776093
[L_front_hand]
1 241.149185 -0.042021 -3.300071 -178.667953 -1.835447 -27.422350 241.171753
2 241.149185 -0.042021 -3.300071 -178.667953 -1.835447 -27.422350 241.171753
[L_weapon_bone]
1 156.183838 0.000000 0.000000 0.001660 0.001660 0.001660 156.183838
2 156.183838 0.000000 0.000000 0.001802 0.001504 10.327388 156.183838
[L_front_hand01_01]
1 86.095154 20.947098 -0.655860 -0.366594 -0.477154 75.385574 88.609184
2 86.095154 20.947098 -0.655860 0.405585 -0.442306 -4.620490 88.609184
[L_front_hand02_01]
1 86.935165 -11.437475 24.513514 154.403519 -59.888931 -61.371990 91.046425
2 86.935165 -11.437475 24.513514 116.959450 3.630817 1.495453 91.046425
[L_front_hand03_01]
1 86.637497 -14.123976 -20.424902 -153.913849 58.118122 -62.702866 90.126129
2 86.637497 -14.123976 -20.424902 -118.420097 -4.656303 -0.152527 90.126129
[L_front_hand01_02]
1 71.020905 -0.000179 0.000030 0.000334 -0.002323 -106.379684 71.020905
2 71.020905 -0.000179 0.000030 0.001534 0.001777 -8.378850 71.020905
[L_front_hand02_02]
1 71.020927 -0.000119 0.000060 0.000334 -0.002323 -106.379684 71.020927
2 71.020927 -0.000119 0.000060 0.001534 0.001777 -8.378850 71.020927
[L_front_hand03_02]
1 71.020905 -0.000060 0.000060 0.000334 -0.002323 -106.379684 71.020905
2 71.020905 -0.000060 0.000060 0.001534 0.001777 -8.378850 71.020905
[R_forearm]
1 322.776428 -0.000060 0.000030 0.199694 -0.075621 -69.903069 322.776428
2 322.776428 -0.000060 0.000030 0.199694 -0.075621 -69.903076 322.776428
[R_front_hand]
1 238.847015 -0.006795 2.210259 -1.531694 0.790216 -51.443054 238.857239
2 238.847015 -0.006795 2.210259 -1.531694 0.790216 -51.443054 238.857239
[R_weapon_bone]
1 155.664093 0.002503 -0.000030 0.003487 0.001180 -90.988930 155.664078
2 155.664093 0.002503 -0.000030 0.003238 0.001750 -110.392578 155.664078
[R_front_hand01_01]
1 87.624611 14.231146 22.918642 -154.633499 -59.950619 61.746044 91.683487
2 87.624611 14.231146 22.918642 -116.960213 3.496675 -1.324139 91.683487
[R_front_hand02_01]
1 89.356956 14.367283 -19.491137 154.602661 58.302849 63.744389 92.579636
2 89.356956 14.367283 -19.491137 118.419647 -4.257089 0.609827 92.579636
[R_front_hand03_01]
1 87.286232 -22.307278 -0.143439 0.162155 -0.423168 -75.767921 90.091743
2 87.286232 -22.307278 -0.143439 -0.387970 -0.231462 4.232001 90.091743
[R_front_hand01_02]
1 71.020905 0.000060 0.000119 0.002323 -0.000334 106.381714 71.020905
2 71.020905 0.000060 0.000119 0.001777 0.001534 8.377220 71.020905
[R_front_hand02_02]
1 71.020844 -0.000030 -0.000119 0.002323 -0.000334 106.381714 71.020836
2 71.020844 -0.000030 -0.000119 0.001777 0.001534 8.377220 71.020836
[R_front_hand03_02]
1 71.020905 0.000000 0.000030 0.002323 -0.000334 106.381714 71.020905
2 71.020905 0.000000 0.000030 0.001777 0.001534 8.377220 71.020905
[null_rope01_connect]
1 328.732483 0.000000 -0.000238 -136.714310 -54.263935 174.201324 328.732483
2 328.732483 0.000000 -0.000238 -138.636169 -60.987190 -169.861588 328.732483
[Rope1_Seg01]
1 0.000000 0.000000 0.000000 108.101387 48.618549 130.653702 0.000000
2 0.000000 0.000000 0.000000 99.787399 56.837845 118.875153 0.000000
[Rope1_Seg02]
1 139.999863 -0.000179 0.000000 -0.211714 -7.365074 4.699946 139.999863
2 139.999863 -0.000179 0.000000 -0.175689 -3.119691 5.054554 139.999863
[Rope1_Seg03]
1 139.999924 0.000060 -0.000060 -1.267065 -11.419754 6.359655 139.999924
2 139.999924 0.000060 -0.000060 -0.363753 -6.233052 8.429361 139.999924
[Rope1_Seg04]
1 139.999924 -0.000060 -0.000119 -5.238678 -18.486816 10.134254 139.999924
2 139.999924 -0.000060 -0.000119 -0.992155 -15.389911 25.035774 139.999924
[Rope1_Seg05]
1 139.999832 0.000119 -0.000060 1.517589 -10.077268 15.562561 139.999832
2 139.999832 0.000119 -0.000060 22.790504 0.820882 24.966042 139.999832
[Rope1_Seg06]
1 139.999954 0.000119 -0.000060 2.629462 -3.280952 6.353538 139.999954
2 139.999954 0.000119 -0.000060 8.296828 2.158455 5.650566 139.999954
[Rope1_Seg07]
1 139.999985 0.000060 0.000000 1.301298 -1.965413 3.279261 139.999985
2 139.999985 0.000060 0.000000 4.597916 1.407254 2.726476 139.999985
[Rope1_Seg09]
1 121.602913 0.000119 -0.000089 -89.793175 -1.359789 0.847147 121.602913
2 121.602913 0.000119 -0.000089 -89.793175 -1.359789 0.847147 121.602913
[L_mid_hand01]
1 103.859421 1.038730 8.195221 111.431305 -47.263851 -16.612017 104.187431
2 103.859421 1.038730 8.195221 111.431297 -47.263840 -16.612019 104.187431
[L_mid_hand02]
1 105.572853 -4.139662 -10.864139 -150.709808 35.166882 -45.161087 106.211075
2 105.572853 -4.139662 -10.864139 -150.709808 35.166874 -45.161087 106.211075
[L_mid_hand03]
1 104.641464 17.579376 -3.913581 -12.649596 13.974999 50.985855 106.179977
2 104.641464 17.579376 -3.913581 -12.649595 13.974999 50.985855 106.179977
[null_rope02_connect]
1 328.732849 0.000179 -0.000119 -124.702988 39.346882 16.712608 328.732849
2 328.732849 0.000179 -0.000119 -125.755096 35.564503 4.905334 328.732849
[Rope2_Seg01]
1 -0.000076 0.000134 0.000153 -51.164585 45.578972 49.172413 0.000217
2 -0.000075 0.000134 0.000153 -66.360580 46.551037 27.764128 0.000216
[Rope2_Seg02]
1 139.999741 -0.000060 -0.000119 -0.070231 -5.653266 2.258304 139.999756
2 139.999741 -0.000060 -0.000119 -1.863296 -10.989118 8.342219 139.999756
[Rope2_Seg03]
1 140.000107 0.000030 0.000000 -0.171487 -6.255406 3.077349 140.000107
2 140.000107 0.000030 0.000000 -1.832336 -13.250564 11.911905 140.000107
[Rope2_Seg04]
1 139.999802 0.000000 -0.000060 -0.817897 -14.191216 5.897339 139.999802
2 139.999802 0.000000 -0.000060 -2.434709 -24.866972 14.952609 139.999802
[Rope2_Seg05]
1 139.999985 -0.000060 0.000119 -4.194383 -23.215305 4.997214 139.999985
2 139.999985 -0.000060 0.000119 -1.465124 -13.743056 5.381102 139.999985
[Rope2_Seg06]
1 139.999893 -0.000030 -0.000119 -2.026610 -7.215394 1.120719 139.999893
2 139.999893 -0.000030 -0.000119 -0.169200 -4.977877 2.221964 139.999893
[Rope2_Seg07]
1 139.999893 0.000060 -0.000060 -1.280704 -3.658524 0.487930 139.999893
2 139.999893 0.000060 -0.000060 -0.098125 -2.806869 1.245828 139.999893
[Rope2_Seg09]
1 121.338966 0.000089 -0.000060 33.793236 -1.359788 -0.847141 121.338966
2 121.338966 0.000089 -0.000060 33.793236 -1.359788 -0.847141 121.338966
[R_mid_hand01]
1 104.680779 11.144459 -10.335981 -34.269650 35.095989 42.885235 105.778534
2 104.680779 11.144459 -10.335981 -34.269653 35.095997 42.885235 105.778534
[R_mid_hand02]
1 104.070427 2.443552 8.231699 68.449066 -47.537163 16.779839 104.424065
2 104.070427 2.443552 8.231699 68.449051 -47.537151 16.779839 104.424065
[R_mid_hand03]
1 106.028137 -11.221827 -5.996406 -171.106766 13.128626 -52.726494 106.788818
2 106.028137 -11.221827 -5.996406 -171.106766 13.128626 -52.726494 106.788818
[spine02]
1 129.756927 0.001550 0.000119 -0.245322 -4.052060 -4.355547 129.756927
2 129.756927 0.001550 0.000119 -0.245322 -4.052060 -4.355547 129.756927
[spine03]
1 78.613739 0.087433 -4.898800 0.369659 4.260734 -4.885720 78.766266
2 78.613747 0.087427 -4.898808 0.369659 4.260735 -4.885721 78.766281
[pelvis]
1 169.435242 0.051022 0.000000 -0.010007 -0.191417 -1.897554 169.435257
2 169.435242 0.051022 0.000000 -0.010019 -0.193063 -1.874472 169.435257
[null_rope03_connect]
1 -1.257226 -2.466202 137.391083 3.419360 -87.944046 109.922150 137.418976
2 -1.257226 -2.466202 137.391083 19.319853 -84.747009 98.315033 137.418976
[null_rope04_connect]
1 -1.259640 -2.480268 -137.844437 3.419360 -87.944046 109.922150 137.872513
2 -1.259640 -2.480268 -137.844437 19.319853 -84.747009 98.315033 137.872513
[Rope3_Seg01]
1 -0.000019 0.000000 0.000153 -141.121872 -34.139709 -62.857220 0.000154
2 -0.000006 0.000000 0.000146 -152.220978 -48.889233 -55.992908 0.000147
[Rope3_Seg02]
1 139.999924 -0.000119 0.000060 -35.206116 9.821154 -48.055145 139.999924
2 139.999924 -0.000119 0.000060 -38.525360 12.733959 -44.854343 139.999924
[Rope3_Seg03]
1 139.999924 -0.000119 0.000119 -59.034283 35.378548 -40.829258 139.999924
2 139.999924 -0.000119 0.000119 -38.197750 30.597103 -22.877211 139.999924
[Rope3_Seg04]
1 139.999924 0.000119 0.000000 -18.466534 31.941196 -11.398769 139.999924
2 139.999924 0.000119 0.000000 -13.231025 20.078913 -7.053472 139.999924
[Rope3_Seg05]
1 139.999924 -0.000238 0.000060 -4.634296 20.985994 -2.236378 139.999924
2 139.999924 -0.000238 0.000060 -11.297873 25.494345 -7.265240 139.999924
[Rope3_Seg06]
1 139.999893 -0.000119 -0.000060 -0.163378 6.945038 0.219668 139.999893
2 139.999893 -0.000119 -0.000060 -2.208962 12.980412 -0.747507 139.999893
[Rope3_Seg07]
1 139.999771 0.000060 -0.000119 0.352944 4.047668 0.137851 139.999771
2 139.999771 0.000060 -0.000119 -0.230722 6.746559 0.007878 139.999771
[Rope3_Seg08]
1 139.999985 -0.000060 0.000000 0.507556 2.306235 0.066290 139.999985
2 139.999985 -0.000060 0.000000 0.289347 3.741224 0.021006 139.999985
[Rope3_Seg09]
1 90.185997 -0.000179 -0.000060 89.793228 -1.359877 -0.847183 90.185997
2 90.185997 -0.000179 -0.000060 89.793228 -1.359877 -0.847183 90.185997
[R_rear_hand01]
1 103.366196 -6.073594 -10.757982 -166.970291 21.129854 -46.704182 104.101845
2 103.366196 -6.073594 -10.757982 -166.970291 21.129854 -46.704182 104.101845
[R_rear_hand02]
1 100.509819 12.039542 -7.992327 -28.148870 27.804201 44.102722 101.543350
2 100.509819 12.039542 -7.992327 -28.148870 27.804201 44.102722 101.543350
[R_rear_hand03]
1 101.539970 5.215704 5.435467 81.628380 -47.127724 10.016966 101.819031
2 101.539970 5.215704 5.435467 81.628380 -47.127724 10.016966 101.819031
[Rope4_Seg01]
1 -0.000019 -0.000076 -0.000153 47.128006 -12.160142 -103.048302 0.000172
2 -0.000019 -0.000073 -0.000153 51.705647 -20.499075 -115.609367 0.000170
[Rope4_Seg02]
1 139.999985 0.000060 0.000119 27.053955 -69.479279 11.733563 139.999985
2 139.999985 0.000060 0.000119 40.011131 -64.757332 17.067446 139.999985
[Rope4_Seg03]
1 139.999924 0.000000 -0.000238 48.405952 -28.517365 29.589445 139.999924
2 139.999924 0.000000 -0.000238 35.307297 -14.173618 28.068815 139.999924
[Rope4_Seg04]
1 139.999985 0.000000 0.000119 19.034185 -2.165821 24.012081 139.999985
2 139.999985 0.000000 0.000119 11.159557 0.025239 14.448164 139.999985
[Rope4_Seg05]
1 139.999802 -0.000060 -0.000119 13.219146 6.454735 32.983208 139.999802
2 139.999802 -0.000060 -0.000119 11.457400 2.691410 22.936827 139.999802
[Rope4_Seg06]
1 139.999924 0.000000 0.000060 1.708287 5.301234 11.876324 139.999924
2 139.999924 0.000000 0.000060 4.498336 5.275318 16.280327 139.999924
[Rope4_Seg07]
1 139.999802 0.000000 0.000000 0.260602 2.826197 5.873086 139.999802
2 139.999802 0.000000 0.000000 1.134891 3.436813 8.162441 139.999802
[Rope4_Seg08]
1 139.999924 0.000000 0.000119 -1.569030 1.534437 3.166662 139.999924
2 139.999924 0.000000 0.000119 -1.250169 2.006702 4.556714 139.999924
[Rope4_Seg09]
1 90.185791 0.000060 0.000060 -135.617828 2.228885 0.850567 90.185791
2 90.185791 0.000060 0.000060 -135.617828 2.228885 0.850567 90.185791
[L_rear_hand01]
1 101.696655 -8.392275 -7.654577 -27.705481 -28.251705 134.947800 102.329041
2 101.696655 -8.392275 -7.654577 -27.705481 -28.251705 134.947800 102.329041
[L_rear_hand02]
1 102.726799 -1.568258 5.773216 81.477219 48.065086 169.775513 102.900848
2 102.726799 -1.568258 5.773216 81.477219 48.065086 169.775513 102.900848
[L_rear_hand03]
1 104.552910 9.721220 -10.420293 -167.330078 -21.338425 -132.303940 105.519653
2 104.552910 9.721220 -10.420293 -167.330078 -21.338425 -132.303940 105.519653
